<?xml version="1.0" encoding="UTF-8"?>
<svg id="Layer_3" data-name="Layer 3" xmlns="http://www.w3.org/2000/svg" width="6.7311164in" height="1.9011261in" viewBox="0 0 484.6403806 136.8810782">
  <g id="Main_Logo" data-name="Main Logo">
    <g>
      <g>
        <path d="M144.9100857,29.9723937l-1.2012397,7.7430147,5.0450643-2.8834187,1.4568717,7.2246079c2.1306418.5002464,3.9768722-1.8399746,5.583634-2.0703954,3.302081-.4735413,5.8378142,8.6561647,4.5326231,11.4579536,1.1818371-.2368815,1.3584668-1.831865,2.2099109-2.4770884,7.4933684-5.6784671,12.8471326,5.7250226,8.9692697,7.5269453-1.4528009.6750715-1.9617504-3.614757-3.7281524-4.220625-1.985603-.6810529-4.0691772.5900708-6.0141731.6224195-.4701597.5180714,2.8951733,6.4340744,3.6262646,6.8890374,2.0312961,1.2640891,5.4718906-3.0666045,9.6838244,1.1080589.9951599.9863539,2.6746417,5.0002079,3.0085448,5.0545819,1.7931792.292008,4.4843253-2.5707536,9.0061438-1.1732755,3.8009222,1.1746835,3.895754,5.859287,4.3043397,6.173365,1.0342408.7950164,2.3135858-2.1610647,3.8146883-3.0398807,5.2313355-3.0626697,10.827652-.3911989,8.8094367,5.9157478,3.0877899-1.5912756,8.1346945-7.1875464,11.6445458-4.3875516,1.115231.889679.8969363,2.8542858,1.0137604,2.9582032.6051795.5383191,6.773251-2.8202831,7.5414146-3.6474365,1.3370253-1.4396999,2.0899667-5.4721987,3.5885284-6.5250263,1.3685965-.9615194,3.7803051-.3751973,4.4464386-1.3327355,1.065542-1.5316705-.588773-8.4647033,3.5743242-10.1602973,5.99149,3.5282364-4.1171048,4.3884931-2.4619578,9.6465538,1.261138,4.0063751,4.6541104-2.0784714,4.2691858-3.9896159-3.0210099,18.4272063-16.3474298,33.4862847-34.2703919,38.7261187-17.9229621,5.239834-37.2625447-.2692365-49.7339179-14.1671962-12.4713732-13.8979597-15.8618452-33.7190093-8.7189812-50.9720649ZM145.8175712,47.0705998c1.3366315-.8805498.3240874-4.8139813-2.1088691-4.2913359l-.0006762,4.3345653c.6240762-.0993584,1.7591205.1876245,2.1095454-.0432294ZM155.1100002,47.2749752c-5.8428614-3.2314962-5.0161068,8.8995963,1.6539632,4.4438586.2154852-.983702-1.0726611-4.1223594-1.6539632-4.4438586ZM158.8717022,63.7213308c.5367817-.4777934-1.389931-4.3169409-2.8822086-3.6046053-.8832728,1.9730406,1.4622689,4.8685042,2.8822086,3.6046053ZM234.0005704,63.7286458c-1.8643653.8789343-6.3331636,2.7572613-6.5236924,4.7221967-.5842307,6.0252091,8.1027545-.7479456,6.5236924-4.7221967ZM173.2331544,65.2602943c-8.0087556-.707888-5.5894039,4.8914027.8088332,4.2403017l-.8088332-4.2403017ZM187.8830984,71.5661359c-.640028-.4256848-.2001838-3.1598708-2.6613809-3.5411879-4.9063828-.7601535-6.7375134,5.2688411-1.4509005,5.8543203,1.0523664.1165469,6.4634919-.3723972,6.8906144-.7703322,1.8162128-1.6921016-2.4610547-1.3317773-2.778333-1.5428002ZM198.8497912,76.3138422c1.4211617-.6150836,3.055027-.8228988,4.0943716-2.1286281-4.4171743-9.9296286-15.5455094,2.6219364-4.6577151,3.1824967.3326619.0171272.300657-.940177.5633435-1.0538686ZM214.4961537,73.1201087c-1.6868476-.2151407-3.1420013.1758557-4.7233558.68834-.6864485.2224638-3.6195284,1.4444536-3.2123764,2.5479674,1.4455205,3.9178292,8.5353666.6172756,7.9357322-3.2363074ZM224.6098239,74.5649897c-.407326-.3865865-4.072667.9586299-4.6001705,1.3910518-3.1703938,2.5989354,4.8830905,3.9051824,4.6001705-1.3910518Z" style="fill: #448460;"/>
        <path d="M174.7714405,57.2196575c.1948453-4.1937531,4.8093209-4.999861,8.2906546-4.3129999,3.6952037.7290573,5.4199956,8.7135191,1.807426,6.8602742-1.25166-.6421004-1.9352527-2.9521731-4.0017737-3.2803959-2.0786559-.3301502-4.0266922.9654402-6.0963069.7331216Z" style="fill: #448460;"/>
        <path d="M224.511822,60.2210329c.2314351.3684282.2735606,4.7760866.098251,4.9509292-1.2871645,1.2837355-2.4682718-1.4532315-2.6271512-1.4733349-4.8211341-.6100306-4.3200838,4.0460247-5.6863537,4.3588646-3.093626.708359-.8917301-5.3204367,1.1089113-6.8443728,1.338089-1.0192542,6.0999714-2.5941572,7.1063427-.9920861Z" style="fill: #448460;"/>
        <path d="M204.3724078,65.8868675c-.1338891.1152227-1.3513038.273723-1.4359129-.3595728-1.07527-8.0483491,11.4176769-10.1902274,10.8934229-4.3390251-.3226781,3.6014126-3.4595495-.0822605-5.8453505.6573833-2.7688839.8584068-2.9838079,3.5004659-3.6121594,4.0412146Z" style="fill: #448460;"/>
        <path d="M158.142288,39.16086c-1.7545349,1.6495051-2.3794881-5.0046425-2.1592774-5.7812452-1.4431519-.8426801-5.2792783,1.9673936-5.7726517,1.4461934-1.9777199-2.0892653,8.4157108-10.1812032,8.7309833-.3613023.0283335.882515-.3978647,4.3191807-.7990541,4.6963541Z" style="fill: #448460;"/>
        <path d="M200.7705457,61.5542518c-2.3985158.6832372-4.5087043-2.5751561-6.2495263-2.7432426-.9334496-.09013-6.1295534,3.8602296-5.2942837.9554969,1.7253801-6.0001794,11.8791373-5.312929,11.54381,1.7877457Z" style="fill: #448460;"/>
        <path d="M167.5477952,43.4946922c.1037426-5.747773-2.5184625-5.5221377-7.224016-4.3346893-1.3108008-1.2414021,6.3547507-7.8543338,8.8361333-1.9775489.8550902,2.0251538,1.4641387,6.3936436-1.6121173,6.3122382Z" style="fill: #448460;"/>
        <path d="M181.0975119,40.7853247c1.2228182,1.226111.8547492,4.6285695.8905879,6.3210067-2.4609853.1251886-1.3430554-3.4685706-4.1347689-4.220695-2.2836583-.6152477-3.2586683,1.3230412-5.2488527,1.331151-1.2947742-1.2250092,5.6393728-6.2928079,8.4930337-3.4314626Z" style="fill: #448460;"/>
        <path d="M222.4421816,53.608185c-.5726399.6160466-4.2677236-2.7071793-6.5573511-1.1264741-1.0545811.7280581.2076092,3.1881573-2.103538,2.57107-1.1590603-6.1929932,9.1808385-8.7991461,8.6608891-1.4445959Z" style="fill: #448460;"/>
        <path d="M231.1184895,53.6087669c-.4846338.4796168-6.5985901-1.4337598-5.790543,5.0588469-4.3586913-2.1302833,1.952026-10.6116714,5.1145415-8.3566571.7606014.5423427.9190022,3.0573252.6760016,3.2978102Z" style="fill: #448460;"/>
        <path d="M194.8935601,45.0459178c.4982069.805734-.097764,3.0955707.0977334,4.2277335-1.8690732.1677394-2.1436341-1.8885508-4.0110217-2.1825798-1.7131472-.2697431-3.0484795.5634399-4.6493514.7385442-.1752799-3.3897743,7.4061781-4.6540059,8.5626397-2.7836979Z" style="fill: #448460;"/>
        <path d="M167.5512157,31.217122c-.2109053-3.3347859-.0049175-5.1506692-3.8052179-4.1665221-.3056904.0791633-3.7353324,2.6833458-2.6970851.2037123.6202919-1.4814356,3.892461-3.7322488,5.743594-2.9206193,2.2913835,1.0046573,3.4769423,5.60155.758709,6.8834291Z" style="fill: #448460;"/>
        <path d="M179.8209366,35.5479656c-2.6576041.4158787-.5746109-2.810131-2.8793648-3.9769591-1.7439681-.8829189-3.711142-.2105584-5.4154122.378826-1.6195349-1.0916988,1.8401783-2.6911107,2.9244561-2.8708801,5.2189877-.8652895,5.8351218,1.9350172,5.370321,6.4690131Z" style="fill: #448460;"/>
        <path d="M227.4654988,38.4670277c.1191863.0877051.9630209,2.6516942.7549114,2.8616666-4.8325386-1.6318817-3.9140015,1.3578076-4.3392427,4.6992913-.4371855,3.4353403-2.2653775-.7283274-2.1332579-2.8554166.1424564-2.2935095,4.0879126-5.9047639,5.7175892-4.7055413Z" style="fill: #448460;"/>
        <path d="M209.4357444,50.7219062c-3.7539085-2.6633628-6.3570031-1.3319207-9.376612,1.4448227-.1300775-5.4043078,9.2153556-7.8163122,9.376612-1.4448227Z" style="fill: #448460;"/>
        <path d="M193.5463497,39.1600735c-2.3586356.5450428-1.2484247-2.0769104-2.6427467-2.9484135-.9954688-.622205-7.0184105-.3219641-5.2970279-2.0939833,2.6174317-2.6944268,9.3350129.3739408,7.9397746,5.0423968Z" style="fill: #448460;"/>
        <path d="M148.0426224,32.6580206c-.4260774-.4805968.8141879-2.2185832.3649884-2.8710545l-2.5463235,1.781425c-.0654965-1.2817414,2.3267144-5.3784358,3.2615654-5.393344,2.2438303-.0357826.8933317,8.7090657-1.0802303,6.4829734Z" style="fill: #448460;"/>
        <path d="M235.4051935,42.7444644c-.1928024.1949777-1.6218709-.2303057-1.9898904.1219505-.6832113.6539474-.0070819,5.190704-1.5706547,5.6847868.3702709-1.8073503-.5933183-7.4514975.0999005-8.5471844,1.5538458-2.4559754,5.0733951,1.1095002,3.4606446,2.7404471Z" style="fill: #448460;"/>
        <path d="M230.3890493,30.4911332c-4.4097016-.7755712-2.7780512,1.705366-2.5177664,5.0460335-1.8058039-1.2885833-3.2662376-4.9098638-1.8868314-6.7782906.9071305-1.2287222,4.960331-.4945758,4.4045978,1.7322571Z" style="fill: #448460;"/>
        <path d="M158.8660638,26.1550744c-1.5524985-.1485018.0389715-3.9451659-1.8080706-4.3255193-1.3028383-.2682879-3.5294933,3.4306475-3.9546518,2.8860955.6099504-6.6347116,8.7101311-5.3287169,5.7627224,1.4394238Z" style="fill: #448460;"/>
        <path d="M184.5203215,35.5516922c.4690888.2407989.4690888.4815978,0,.7223968v-.7223968Z" style="fill: #448460;"/>
        <path d="M198.8497912,76.3138422c-.2626866.1136916-.2306817,1.0709958-.5633435,1.0538686-10.8877943-.5605603.2405409-13.1121254,4.6577151-3.1824967-1.0393445,1.3057293-2.6732099,1.5135445-4.0943716,2.1286281Z" style="fill: #fbfcfb;"/>
        <path d="M187.8830984,71.5661359c.3172783.2110229,4.5945458-.1493015,2.778333,1.5428002-.4271225.397935-5.838248.8868792-6.8906144.7703322-5.2866129-.5854792-3.4554823-6.6144738,1.4509005-5.8543203,2.4611971.3813171,2.0213529,3.1155031,2.6613809,3.5411879Z" style="fill: #fbfcfb;"/>
        <path d="M234.0005704,63.7286458c1.5790621,3.974251-7.107923,10.7474057-6.5236924,4.7221967.1905287-1.9649354,4.6593271-3.8432623,6.5236924-4.7221967Z" style="fill: #fbfcfb;"/>
        <path d="M214.4961537,73.1201087c.5996344,3.853583-6.4902117,7.1541365-7.9357322,3.2363074-.407152-1.1035138,2.5259279-2.3255037,3.2123764-2.5479674,1.5813545-.5124843,3.0365081-.9034806,4.7233558-.68834Z" style="fill: #fbfcfb;"/>
        <path d="M155.1100002,47.2749752c.5813021.3214992,1.8694484,3.4601566,1.6539632,4.4438586-6.67007,4.4557377-7.4968246-7.6753548-1.6539632-4.4438586Z" style="fill: #fbfcfb;"/>
        <path d="M173.2331544,65.2602943l.8088332,4.2403017c-6.3982371.651101-8.8175888-4.9481897-.8088332-4.2403017Z" style="fill: #fbfcfb;"/>
        <path d="M224.6098239,74.5649897c.28292,5.2962342-7.7705643,3.9899873-4.6001705,1.3910518.5275035-.4324219,4.1928445-1.7776384,4.6001705-1.3910518Z" style="fill: #fbfcfb;"/>
        <path d="M145.8175712,47.0705998c-.3504249.2308539-1.4854691-.056129-2.1095454.0432294l.0006762-4.3345653c2.4329565-.5226453,3.4455006,3.4107861,2.1088691,4.2913359Z" style="fill: #fbfcfb;"/>
        <path d="M158.8717022,63.7213308c-1.4199397,1.2638989-3.7654814-1.6315647-2.8822086-3.6046053,1.4922776-.7123356,3.4189903,3.1268119,2.8822086,3.6046053Z" style="fill: #fbfcfb;"/>
        <path d="M237.6333766,56.385536c.3849245,1.9111446-3.0080479,7.995991-4.2691858,3.9896159-1.6551471-5.2580607,8.4534477-6.1183175,2.4619578-9.6465538-4.1630972,1.6955939-2.5087822,8.6286268-3.5743242,10.1602973-.6661336.9575382-3.0778421.3712161-4.4464386,1.3327355-1.4985618,1.0528276-2.2515031,5.0853264-3.5885284,6.5250263-.7681636.8271534-6.9362351,4.1857556-7.5414146,3.6474365-.1168241-.1039174.1014707-2.0685241-1.0137604-2.9582032-3.5098514-2.7999948-8.5567559,2.796276-11.6445458,4.3875516,2.0182153-6.3069467-3.5781013-8.9784175-8.8094367-5.9157478-1.5011024.8788159-2.7804475,3.834897-3.8146883,3.0398807-.4085856-.314078-.5034175-4.9986815-4.3043397-6.173365-4.5218185-1.3974781-7.2129646,1.4652835-9.0061438,1.1732755-.333903-.054374-2.0133849-4.068228-3.0085448-5.0545819-4.2119338-4.1746634-7.6525283.1560302-9.6838244-1.1080589-.7310914-.454963-4.0964243-6.370966-3.6262646-6.8890374,1.9449959-.0323487,4.0285701-1.3034724,6.0141731-.6224195,1.7664021.605868,2.2753515,4.8956965,3.7281524,4.220625,3.8778629-1.8019227-1.4759014-13.2054124-8.9692697-7.5269453-.851444.6452234-1.0280738,2.2402069-2.2099109,2.4770884,1.3051911-2.8017889-1.2305421-11.9314949-4.5326231-11.4579536-1.6067618.2304208-3.4529922,2.5706418-5.583634,2.0703954l-1.4568717-7.2246079-5.0450643,2.8834187,1.2012397-7.7430147C154.3376531,7.2008074,179.3374449-4.8872665,203.0404841,1.8647776c23.7030393,6.7520441,38.580197,30.1994596,34.5928925,54.5207583ZM158.8660638,26.1550744c2.9474087-6.7681406-5.152772-8.0741354-5.7627224-1.4394238.4251585.544552,2.6518135-3.1543833,3.9546518-2.8860955,1.8470421.3803534.2555721,4.1770175,1.8080706,4.3255193ZM167.5512157,31.217122c2.7182334-1.2818791,1.5326745-5.8787717-.758709-6.8834291-1.851133-.8116295-5.1233022,1.4391837-5.743594,2.9206193-1.0382473,2.4796335,2.3913947-.124549,2.6970851-.2037123,3.8003004-.9841471,3.5943127.8317361,3.8052179,4.1665221ZM148.0426224,32.6580206c1.973562,2.2260923,3.3240605-6.518756,1.0802303-6.4829734-.934851.0149082-3.3270619,4.1116026-3.2615654,5.393344l2.5463235-1.781425c.4491995.6524713-.7910658,2.3904577-.3649884,2.8710545ZM230.3890493,30.4911332c.5557332-2.2268329-3.4974674-2.9609793-4.4045978-1.7322571-1.3794061,1.8684269.0810275,5.4897073,1.8868314,6.7782906-.2602848-3.3406676-1.8919352-5.8216047,2.5177664-5.0460335ZM179.8209366,35.5479656c.4648008-4.5339958-.1513333-7.3343026-5.370321-6.4690131-1.0842778.1797694-4.5439909,1.7791813-2.9244561,2.8708801,1.7042702-.5893844,3.6714441-1.261745,5.4154122-.378826,2.304754,1.1668281.2217607,4.3928378,2.8793648,3.9769591ZM158.142288,39.16086c.4011894-.3771734.8273877-3.8138391.7990541-4.6963541-.3152724-9.8199009-10.7087032-1.727963-8.7309833.3613023.4933734.5212002,4.3294998-2.2888736,5.7726517-1.4461934-.2202107.7766028.4047425,7.4307504,2.1592774,5.7812452ZM193.5463497,39.1600735c1.3952383-4.668456-5.3223429-7.7368236-7.9397746-5.0423968-1.7213826,1.7720192,4.3015591,1.4717783,5.2970279,2.0939833,1.394322.8715031.2841111,3.4934563,2.6427467,2.9484135ZM167.5477952,43.4946922c3.076256.0814053,2.4672075-4.2870845,1.6121173-6.3122382-2.4813826-5.8767849-10.146934.7361468-8.8361333,1.9775489,4.7055535-1.1874484,7.3277586-1.4130837,7.224016,4.3346893ZM184.5203215,35.5516922v.7223968c.4690888-.2407989.4690888-.4815978,0-.7223968ZM227.4654988,38.4670277c-1.6296766-1.1992226-5.5751327,2.4120319-5.7175892,4.7055413-.1321196,2.1270892,1.6960724,6.2907569,2.1332579,2.8554166.4252412-3.3414836-.493296-6.3311729,4.3392427-4.6992913.2081095-.2099724-.6357251-2.7739615-.7549114-2.8616666ZM235.4051935,42.7444644c1.6127505-1.6309469-1.9067988-5.1964225-3.4606446-2.7404471-.6932188,1.0956868.2703704,6.7398341-.0999005,8.5471844,1.5635728-.4940828.8874434-5.0308394,1.5706547-5.6847868.3680195-.3522562,1.7970881.0730273,1.9898904-.1219505ZM181.0975119,40.7853247c-2.853661-2.8613453-9.787808,2.2064535-8.4930337,3.4314626,1.9901844-.0081099,2.9651944-1.9463987,5.2488527-1.331151,2.7917136.7521244,1.6737836,4.3458836,4.1347689,4.220695-.0358387-1.6924372.3322303-5.0948957-.8905879-6.3210067ZM194.8935601,45.0459178c-1.1564615-1.870308-8.7379196-.6060764-8.5626397,2.7836979,1.6008719-.1751043,2.9362041-1.0082873,4.6493514-.7385442,1.8673876.294029,2.1419485,2.3503192,4.0110217,2.1825798-.1954975-1.1321628.4004735-3.4219995-.0977334-4.2277335ZM209.4357444,50.7219062c-.1612564-6.3714895-9.5066895-3.9594851-9.376612,1.4448227,3.019609-2.7767434,5.6227035-4.1081855,9.376612-1.4448227ZM222.4421816,53.608185c.5199494-7.3545502-9.8199493-4.7483973-8.6608891,1.4445959,2.3111472.6170873,1.0489569-1.843012,2.103538-2.57107,2.2896275-1.5807052,5.9847113,1.7425207,6.5573511,1.1264741ZM231.1184895,53.6087669c.2430006-.2404851.0845998-2.7554676-.6760016-3.2978102-3.1625155-2.2550143-9.4732327,6.2263738-5.1145415,8.3566571-.8080471-6.4926067,5.3059092-4.5792301,5.790543-5.0588469ZM174.7714405,57.2196575c2.0696148.2323186,4.017651-1.0632717,6.0963069-.7331216,2.066521.3282228,2.7501137,2.6382955,4.0017737,3.2803959,3.6125696,1.8532449,1.8877777-6.1312169-1.807426-6.8602742-3.4813337-.6868611-8.0958093.1192467-8.2906546,4.3129999ZM200.7705457,61.5542518c.3353273-7.1006746-9.8184299-7.7879251-11.54381-1.7877457-.8352697,2.9047327,4.3608341-1.0456269,5.2942837-.9554969,1.7408219.1680865,3.8510105,3.4264799,6.2495263,2.7432426ZM204.3724078,65.8868675c.6283516-.5407487.8432755-3.1828078,3.6121594-4.0412146,2.385801-.7396438,5.5226724,2.9440293,5.8453505-.6573833.524254-5.8512023-11.9686929-3.709324-10.8934229,4.3390251.0846091.6332957,1.3020238.4747955,1.4359129.3595728ZM224.511822,60.2210329c-1.0063712-1.6020711-5.7682536-.0271681-7.1063427.9920861-2.0006414,1.5239361-4.2025373,7.5527318-1.1089113,6.8443728,1.36627-.3128399.8652196-4.9688952,5.6863537-4.3588646.1588794.0201034,1.3399867,2.7570704,2.6271512,1.4733349.1753096-.1748426.1331842-4.582501-.098251-4.9509292Z" style="fill: #fbfcfb;"/>
      </g>
      <g>
        <path d="M46.5466968,0h41.6179527c27.3800304,0,43.6712937,13.2795889,45.9987898,34.9096194h-34.4991931c-1.5058372-3.2858294-3.2858294-5.4758448-15.4700075-5.4758448h-31.0762862c-10.404589,0-16.8391703,6.5708525-16.8391703,19.0287825,0,12.5950075,6.4345813,19.0295888,16.8391703,19.0295888h26.1479452c4.928341,0,14.2379222-1.6425115,18.0708523-7.1191627h-29.8442009v-19.7133639h66.8075646v54.3496346h-25.3266894l-3.6962557-10.2679146c-4.5179147,7.1191627-14.6483485,12.3216588-29.5708522,12.3216588h-29.1596195C23.1362709,97.0629981,0,82.9617503,0,48.4625571,0,15.4696043,23.1362709,0,46.5466968,0Z" style="fill: #fbfcfb;"/>
        <path d="M360.0667252,95.0092539h-114.0388428V1.9166666h40.2487899v62.9742313h73.7900529v30.118356Z" style="fill: #fbfcfb;"/>
        <path d="M409.2078162,95.0092539h-40.2487899V1.9166666h115.6813543v27.517108h-75.4325644v8.2141704h69.1350607v21.7671081h-69.1350607v35.5942008Z" style="fill: #fbfcfb;"/>
      </g>
    </g>
    <g>
      <path d="M69.8787475,107.7770953h13.29979c6.4447809,0,12.807375,3.9816478,13.7925577,12.2327733h-11.1654039c-.7389752-1.9703654-2.3396766-3.4073988-4.5975192-3.4073988h-9.3590592c-3.1199216,0-5.0081002,1.6014069-5.0081002,5.7058057,0,4.1460213,1.8881786,5.7058057,5.0081002,5.7058057h9.3590592c2.2578426,0,3.858544-1.3954109,4.5975192-3.4066933h11.1654039c-.9851827,8.2504201-7.3477768,12.2736903-13.7925577,12.2736903h-13.29979c-7.0193826,0-13.9569312-4.6384362-13.9569312-14.5728027,0-9.8927439,6.9375486-14.5311802,13.9569312-14.5311802Z" style="fill: #fbfcfb;"/>
      <path d="M126.3875993,136.8810782h-14.4902632c-7.0193826,0-13.5463502-4.6384362-13.5463502-14.5728027,0-9.8927439,6.5269676-14.5311802,13.5463502-14.5311802h14.4902632c7.0197353,0,13.3410597,4.6384362,13.3410597,14.5311802,0,9.9343664-6.3213244,14.5728027-13.3410597,14.5728027ZM124.0070057,128.4246622c3.1195688,0,5.2543077-1.1082864,5.2543077-6.1163867,0-4.9664777-2.1347389-6.1163867-5.2543077-6.1163867h-9.7287232c-3.1199216,0-5.4186812,1.1499089-5.4186812,6.1163867,0,5.0081002,1.8881786,6.1163867,5.4186812,6.1163867h9.7287232Z" style="fill: #fbfcfb;"/>
      <path d="M190.2071911,136.2652067h-12.0687526v-16.9121266l-6.7319054,16.9121266h-10.5498851l-6.6909884-16.9121266v16.9121266h-12.0683998v-27.9138624h18.2257035l5.8292622,14.6546367,5.7879924-14.6546367h18.2669732v27.9138624Z" style="fill: #fbfcfb;"/>
      <path d="M241.6130576,136.2652067h-12.0687526v-16.9121266l-6.7319054,16.9121266h-10.5498851l-6.6909884-16.9121266v16.9121266h-12.0683998v-27.9138624h18.2257035l5.8292622,14.6546367,5.7879924-14.6546367h18.2669732v27.9138624Z" style="fill: #fbfcfb;"/>
      <path d="M261.8087737,128.0140812h5.9110962c3.0786518,0,5.0081002-1.9703654,5.0081002-5.7058057v-13.9569312h12.0274828v13.9569312c0,9.9343664-6.9375486,14.5728027-13.9569312,14.5728027h-12.1096696c-7.0193826,0-13.9565785-4.6384362-13.9565785-14.5728027v-13.9569312h12.0274828v13.9569312c0,3.7354403,1.9290957,5.7058057,5.0490172,5.7058057Z" style="fill: #fbfcfb;"/>
      <path d="M299.8577075,136.2652067h-12.0274828v-27.9138624h13.5463502l15.0648649,14.2856782v-14.2856782h12.0687526v27.9138624h-12.6024373l-16.0500476-16.2553381v16.2553381Z" style="fill: #fbfcfb;"/>
      <path d="M331.7697961,108.3513443h12.0274828v27.9138624h-12.0274828v-27.9138624Z" style="fill: #fbfcfb;"/>
      <path d="M386.4373828,117.5054658h-14.4902632v18.7597409h-12.0274828v-18.7597409c-6.1573037.040917-11.6578189.040917-14.4493462.040917v-9.1950385h40.9670922v9.1541215Z" style="fill: #fbfcfb;"/>
      <path d="M402.1636217,125.5922178l-14.4902632-17.2408735h13.6281842l6.8962789,8.497333,6.8962789-8.497333h13.628537l-14.4906159,17.2408735v10.6729889h-12.0683998v-10.6729889Z" style="fill: #fbfcfb;"/>
    </g>
  </g>
</svg>